PathFileType	3	(X/Y/Z)	D:\Jess\Healthy\Labelled\HA03\20250325\SRRun01.trc
DataRate	CameraRate	NumFrames	NumMarkers	Units	OrigDataRate	OrigDataStartFrame	OrigNumFrames
250.0	250.0	4	33	mm	250.0	35312	2501
Frame#	Time	C7			T10			CLAV			LSHO			RSHO			LASIS			RASIS			LPSIS			RPSIS			LILCR			RILCR			LGTR			LTHI			LLTHI			LLEP			LPSH			LLSH			LDSH			LLMAL			LTOE			L5TH			LHEE			RGTR			RTHI			RLTHI			RLEP			RPSH			RLSH			RDSH			RLMAL			RTOE			R5TH			RHEE			
		X1	Y1	Z1	X2	Y2	Z2	X3	Y3	Z3	X4	Y4	Z4	X5	Y5	Z5	X6	Y6	Z6	X7	Y7	Z7	X8	Y8	Z8	X9	Y9	Z9	X10	Y10	Z10	X11	Y11	Z11	X12	Y12	Z12	X13	Y13	Z13	X14	Y14	Z14	X15	Y15	Z15	X16	Y16	Z16	X17	Y17	Z17	X18	Y18	Z18	X19	Y19	Z19	X20	Y20	Z20	X21	Y21	Z21	X22	Y22	Z22	X23	Y23	Z23	X24	Y24	Z24	X25	Y25	Z25	X26	Y26	Z26	X27	Y27	Z27	X28	Y28	Z28	X29	Y29	Z29	X30	Y30	Z30	X31	Y31	Z31	X32	Y32	Z32	X33	Y33	Z33	

313	141.244	858.8427352794151	1430.824630911929	-307.7578309618993	775.1985817224596	1178.309810799794	-282.838673536904	984.1493781151314	1334.957406911416	-275.1191834386995	947.043935061973	1393.851139932607	-449.0246178456524	892.6441494362083	1420.912468371765	-144.6803688431139	906.2477732428841	988.8632286439201	-367.7643089884249	913.9008196176301	986.452860519089	-182.7514595457521	742.6510056166812	1029.438534403307	-292.5195444999693	743.870290513014	1026.458920357454	-244.8422700199159	850.0107965344869	1019.24397753039	-414.2828288232812	845.898106391379	1018.461639027888	-126.865948647725	882.5384593525977	915.3319979121029	-426.531871943349	916.1091666287326	703.0776411378041	-376.355365200518	829.0945840372104	641.7274060859622	-428.0246870684621	795.5755762992463	491.2475700535422	-405.5661536734974	794.1073009213103	368.8624641069405	-351.0315695097128	676.0543740715329	295.8748807952966	-401.0356737233265	682.5154668026285	207.2978198253346	-342.390320933801	583.1166642448138	136.283240282482	-374.7739591925034	715.5390248992082	59.07951822444627	-338.1420488070288	681.2809113890476	50.21955565511159	-383.5126623161299	505.7229298085647	134.2768028003855	-328.9705840602971	843.7706765195463	916.2417194801238	-107.9090591483353	1034.069003718614	755.9909044851855	-205.542123120899	1047.232234193493	646.1022954183096	-135.9912452976551	1071.315227413707	542.8697183967888	-156.2523787786527	1017.711694940322	435.932757291026	-211.3908627832908	895.4594626811596	422.1031572714847	-143.3498649339032	824.4018246869017	322.4994985597965	-195.8560248048009	732.0295913889955	317.0282689423618	-161.0066835742052	761.5615408788919	161.5864647173649	-184.7589472151022	716.8706038675498	185.5364857317839	-144.2677523539749	671.7488926124699	367.1203557791869	-202.3189074160529	
314	141.248	859.0574273658281	1434.202250309784	-307.6768082120429	776.0656017377349	1181.531103239114	-283.8959683512704	984.4049712532037	1339.065558625767	-273.747521789456	948.7184782281472	1397.82321083656	-447.9323806631794	891.2121941326628	1424.876340520975	-144.5422914863535	907.3304065495532	991.48712419149	-368.1574447676213	914.1909508935572	989.9950376833796	-183.3250604603411	743.7293980077955	1032.84164145952	-293.4189044428465	744.6648115207404	1029.972842020555	-245.7149580295553	851.8795250114545	1022.761932432534	-414.4465733672175	846.1986916157462	1022.181621218509	-127.4147814625208	883.0073772228187	917.6757280053833	-426.8107042839993	912.6872637863506	704.7760774949576	-375.7533882170852	824.2827375582888	644.9658595536607	-427.382048979165	787.7175155205956	495.1335610002038	-404.9701447145025	785.5495138850451	372.5473827851686	-350.6961846973864	667.2903295317245	299.9905707050126	-400.7968869227838	674.055585659059	210.8283942858596	-342.5526963257524	574.5301892263451	139.810098957338	-374.8340458404629	705.2557110785841	58.82193546167136	-338.1052329248063	670.7935696633467	50.76290962712331	-383.3837042330439	497.6164388951478	139.141222144304	-328.8878444621627	844.4317374356541	920.3810637431578	-108.0036091529883	1034.917847831777	760.7842385817767	-205.5661178310402	1049.106469108427	651.1954108750091	-135.5987474226267	1073.584455048429	547.7742595858325	-155.6433253923431	1022.874934970093	439.0173889627662	-211.0541302133001	900.8021994437372	421.0304540276937	-143.5954901984496	833.2711469776079	319.3012010234875	-196.576986330873	740.8561438795418	310.6942414110878	-162.3140992087398	776.04106167268	156.4371626655834	-185.8898939977841	730.2133345718196	178.6814546471835	-145.7398861580126	679.0805540256607	358.6993733596174	-203.9903750194574	
315	141.252	859.3009639924405	1437.620848009584	-307.5705533167973	776.9802949259262	1184.804408928034	-284.9406121143854	984.6692161652597	1343.212822891184	-272.3892382054595	950.3695612585677	1401.833379212492	-446.8233238357876	889.8467458982137	1428.848718385608	-144.4044953528727	908.4968356960579	994.1027850454499	-368.4775442068068	914.5085195267244	993.5575158695115	-183.8444696678808	744.9006188004277	1036.324540397637	-294.3468735998756	745.5425151314373	1033.568943834774	-246.615193941375	853.8853532301516	1026.332547956716	-414.5707353447709	846.5289542178347	1025.957934221526	-127.95601407436	883.5895169072077	920.013444088421	-427.0426205197102	909.4158538467095	706.534581283304	-375.1696598569696	819.6398987790508	648.2948064217422	-426.7517078348026	780.0810179595729	499.1611185543378	-404.3823798850291	777.2237775186879	376.3893335188879	-350.3929631935272	658.7657675516733	304.2604728957261	-400.5742190707571	665.8733351642915	214.5078719770347	-342.7518375910756	566.2427527273146	143.4885931372737	-374.9019194519358	695.0934309710624	58.58377769376345	-338.0831100191418	660.440878375884	51.37449036173093	-383.269556028651	489.8397079598208	144.2645334200451	-328.8041643404463	845.0517687098264	924.5740455729112	-108.0746406387232	1035.689547930426	765.4871468081698	-205.5478464532841	1050.772929539627	656.1729652445429	-135.2106217366052	1075.553651555997	552.5514422163172	-155.0420389736766	1027.827720041734	442.0132658825152	-210.675212488407	906.0624619782267	419.8203083537219	-143.8575749315734	842.2136332624976	316.0343082567061	-197.2726279976305	749.8425306771438	304.2475927234748	-163.6578102853796	790.6997130426076	151.3630391846699	-186.9238436551434	743.7587117456827	171.8497256787346	-147.1810798631934	686.6690930677455	350.0836969729085	-205.7775043335996	
316	141.256	859.5692645731303	1441.066081985001	-307.4402336719978	777.9393065127244	1188.116129877586	-285.9693856160007	984.9395457524728	1347.383536376778	-271.0468902769244	951.9931739738643	1405.865341713979	-445.7014465228606	888.5476311132654	1432.814385679087	-144.2651419638367	909.7398074718282	996.6929829048238	-368.7228928047786	914.8544990572288	997.1215019124171	-184.3068684651577	746.1612177467115	1039.87607162565	-295.3013609512151	746.5013541372527	1037.23562456929	-247.5411237756984	856.0218252384865	1029.936889324489	-414.6551412907017	846.8914435792726	1029.775160231196	-128.4892119088388	884.2768330344136	922.3276390130812	-427.228068236702	906.2963733183253	708.3349996040001	-374.6104153541806	815.1755815878533	651.6896871212031	-426.1403480985529	772.6861789630057	503.3005199637208	-403.8083813694968	769.1487409538053	380.3611698066394	-350.1223490245201	650.5013860129077	308.6564529327946	-400.370141448201	657.98062880022	218.3144336152071	-342.9854198146236	558.2693820701344	147.3025954875096	-374.9794444116757	685.0625876265249	58.37965253573576	-338.0764655832704	650.2368490209482	52.06333243567732	-383.1711966560802	482.4089650748654	149.6304892068384	-328.7261192824136	845.6217733575382	928.8010115536982	-108.124212184003	1036.391420820243	770.0875443761198	-205.4803254925569	1052.223711499108	661.0118568931745	-134.8304907199367	1077.220250826957	557.1815311808678	-154.4512013954604	1032.567221355903	444.9076094306503	-210.2549979735816	911.244848421805	418.4676705869007	-144.1314057746189	851.2304348664588	312.7032894361618	-197.9349964272595	758.9951655375874	297.6967360519007	-165.0258779322618	805.53070709855	146.3777859982808	-187.8565617703358	757.5045760115795	165.0538012366565	-148.58547497058	694.5270563837473	341.2885144916788	-207.6634345540555	
